<svg
width="40"
height="40"
viewBox="0 0 40 40"
fill="none"
xmlns="http://www.w3.org/2000/svg"
>
<path
  d="M14.6167 26.2676C14.1083 26.2676 13.6333 26.0926 13.2917 25.7676C12.8583 25.3593 12.65 24.7426 12.725 24.0759L13.0333 21.3759C13.0917 20.8676 13.4 20.1926 13.7583 19.8259L20.6 12.5843C22.3083 10.7759 24.0917 10.7259 25.9 12.4343C27.7083 14.1426 27.7583 15.9259 26.05 17.7343L19.2083 24.9759C18.8583 25.3509 18.2083 25.7009 17.7 25.7843L15.0167 26.2426C14.875 26.2509 14.75 26.2676 14.6167 26.2676ZM23.275 12.4259C22.6333 12.4259 22.075 12.8259 21.5083 13.4259L14.6667 20.6759C14.5 20.8509 14.3083 21.2676 14.275 21.5093L13.9667 24.2093C13.9333 24.4843 14 24.7093 14.15 24.8509C14.3 24.9926 14.525 25.0426 14.8 25.0009L17.4833 24.5426C17.725 24.5009 18.125 24.2843 18.2917 24.1093L25.1333 16.8676C26.1667 15.7676 26.5417 14.7509 25.0333 13.3343C24.3667 12.6926 23.7917 12.4259 23.275 12.4259Z"
  fill="#00A54F"
/>
<path
  d="M24.45 19.1241C24.4333 19.1241 24.4083 19.1241 24.3916 19.1241C21.7916 18.8657 19.7 16.8907 19.3 14.3074C19.25 13.9657 19.4833 13.6491 19.825 13.5907C20.1666 13.5407 20.4833 13.7741 20.5416 14.1157C20.8583 16.1324 22.4916 17.6824 24.525 17.8824C24.8666 17.9157 25.1166 18.2241 25.0833 18.5657C25.0416 18.8824 24.7666 19.1241 24.45 19.1241Z"
  fill="#00A54F"
/>
<path
  d="M27.5 28.959H12.5C12.1583 28.959 11.875 28.6757 11.875 28.334C11.875 27.9923 12.1583 27.709 12.5 27.709H27.5C27.8417 27.709 28.125 27.9923 28.125 28.334C28.125 28.6757 27.8417 28.959 27.5 28.959Z"
  fill="#00A54F"
/>
</svg>